Coordinates
version=1
nRows=19
nColumns=36
inDegrees=yes

Units are S.I. units (second, meters, Newtons, ...)
If the header above contains a line with 'inDegrees', this indicates whether rotational values are in degrees (yes) or radians (no).

endheader
time	pelvis_tilt	pelvis_list	pelvis_rotation	pelvis_tx	pelvis_ty	pelvis_tz	hip_flexion_r	hip_adduction_r	hip_rotation_r	knee_angle_r	knee_angle_r_beta	ankle_angle_r	subtalar_angle_r	mtp_angle_r	hip_flexion_l	hip_adduction_l	hip_rotation_l	knee_angle_l	knee_angle_l_beta	ankle_angle_l	subtalar_angle_l	mtp_angle_l	lumbar_extension	lumbar_bending	lumbar_rotation	arm_flex_r	arm_add_r	arm_rot_r	elbow_flex_r	pro_sup_r	arm_flex_l	arm_add_l	arm_rot_l	elbow_flex_l	pro_sup_l
      2.95000000	    -10.51467978	     -0.59691980	      6.52549770	      0.52158161	      0.70972976	     -0.18766682	     61.46736863	     -6.10159821	      4.25153480	     86.40288974	      1.50801491	     35.35522302	    -16.15381815	     -7.49999987	     61.56451780	     -6.60275771	      1.30934097	     87.00360400	      1.51849935	     35.16149152	     -2.82057947	     -7.49999987	    -39.21232265	     -5.32227942	      1.94777416	     42.31746320	     -5.88053626	     20.36806211	     65.42417977	     81.85642091	     41.80246353	     -9.22983938	     -2.48695651	    104.44756054	     52.10633059
      2.95416670	    -10.51687412	     -0.54435549	      6.52580152	      0.52075991	      0.70929287	     -0.18818626	     61.36922154	     -6.35440721	      4.33874654	     86.36418711	      1.50733942	     35.37986329	    -16.29658691	     -7.49999987	     61.46146276	     -6.40632593	      1.15193409	     87.01059218	      1.51862132	     35.19560334	     -3.27323887	     -7.49999987	    -39.34918041	     -4.98867538	      1.79430303	     42.77018846	     -5.66194583	     20.59749502	     64.66322281	     88.07765547	     41.71253272	     -9.53651231	     -2.08572059	    103.42858195	     50.76355741
      2.95833330	    -10.63446071	     -0.55625084	      6.59644877	      0.51393252	      0.70913641	     -0.18720370	     61.77604345	     -6.55357819	      4.36164914	     86.37791417	      1.50757900	     35.25356586	    -16.38864881	     -7.49999987	     61.80531208	     -6.12747682	      1.06035651	     87.07004914	      1.51965904	     35.32711215	     -3.24208977	     -7.49999987	    -39.68086790	     -4.81080999	      1.70313743	     42.98859095	     -5.68717163	     20.55500467	     64.75433292	     88.10674821	     42.10249376	     -9.64595790	     -2.01501900	    103.22722258	     50.75406214
      2.96250000	    -10.64127818	     -0.47922339	      6.63201343	      0.51735971	      0.70856004	     -0.19267606	     61.78685545	     -6.99048670	      4.38990284	     86.38751952	      1.50774665	     35.00243860	    -16.39175663	     -7.49999987	     61.87120247	     -5.67002169	      1.06440084	     87.08876028	      1.51998561	     35.42121679	     -3.16413640	     -7.49999987	    -39.83218120	     -4.55968794	      1.56863017	     42.98068217	     -5.82705090	     20.63729824	     64.73415559	     88.17385889	     42.12999979	     -9.64505067	     -1.77810561	    102.76112580	     50.73572719
      2.96666670	    -10.71848415	     -0.48144833	      6.59458823	      0.51791744	      0.70881750	     -0.19190736	     61.80140416	     -7.09892811	      4.36930080	     86.29180950	      1.50607619	     34.96004207	    -16.38216160	     -7.49999987	     61.85631208	     -5.53611915	      1.03981509	     87.09824804	      1.52015120	     35.41062833	     -3.58952025	     -7.49999987	    -39.87950361	     -4.45132370	      2.05923925	     42.75135007	     -6.34080306	     20.84308987	     64.96371718	     85.93221042	     42.32813239	     -9.20888183	     -1.02757109	    101.95802699	     51.68448385
      2.97083330	    -10.72766354	     -0.51755456	      6.62665961	      0.52104222	      0.70850904	     -0.18804455	     61.74932772	     -7.08842797	      4.33686796	     86.32450189	      1.50664678	     35.04578097	    -16.39241203	     -7.49999987	     61.78830256	     -5.56906419	      1.24182072	     87.04119471	      1.51915543	     35.36107644	     -3.37670108	     -7.49999987	    -40.02947488	     -4.29337168	      2.12364626	     42.69302961	     -6.18889436	     21.03352045	     65.00373145	     86.04622337	     42.42163941	     -9.42267221	     -1.11396551	    101.83397090	     51.64446622
      2.97500000	    -10.72497965	     -0.46261673	      6.67674842	      0.51775280	      0.70612026	     -0.19201039	     61.90810336	     -7.23892476	      4.43917967	     86.55149024	      1.51060848	     35.03701708	    -16.40335111	     -7.49999987	     61.96478053	     -5.46072021	      1.26707566	     87.39337279	      1.52530210	     35.34141884	     -3.48563956	     -7.49999987	    -40.20151487	     -4.04091257	      2.16191473	     42.86380247	     -6.17202511	     21.15023471	     65.03644167	     86.11633946	     42.40500682	     -9.44507202	     -1.12831214	    101.80182966	     51.62130827
      2.97916670	    -11.01216564	     -0.65159969	      6.85927741	      0.51751447	      0.70512898	     -0.19289434	     62.31824112	     -7.41741621	      4.32561008	     86.63448719	      1.51205705	     35.00989727	    -16.23078208	     -7.49999987	     62.61648967	     -5.28138393	      1.56783811	     87.66437541	      1.53003199	     35.14499681	     -3.52548780	     -7.49999987	    -39.87838392	     -3.74913890	      2.11316548	     42.89662225	     -6.45546153	     21.95424662	     65.12960427	     85.30874745	     42.34952615	     -9.39907196	     -0.81870565	    101.98789786	     51.92355963
      2.98333330	    -11.25987012	     -0.66480626	      6.92112722	      0.51837668	      0.70794738	     -0.19209224	     62.54021824	     -7.48588690	      4.31627632	     86.50541027	      1.50980423	     34.91053033	    -16.20326814	     -7.49999987	     62.84226241	     -5.14041379	      1.57896709	     87.51269481	      1.52738466	     35.12717456	     -3.26156131	     -7.49999987	    -39.84872214	     -3.54337762	      1.98858163	     43.11012799	     -6.48287591	     22.52818215	     65.20608319	     85.19086375	     42.17258814	     -9.53060250	     -0.85936160	    102.55705310	     52.01007011
      2.98750000	    -11.31887952	     -0.69370682	      7.04950265	      0.52153347	      0.70523566	     -0.18895220	     62.47621179	     -7.40959150	      4.20598469	     86.60904019	      1.51161291	     35.02484994	    -16.20119606	     -7.49999987	     62.82040390	     -5.17441564	      1.71333802	     87.51827190	      1.52748200	     35.18670613	     -3.16530454	     -7.49999987	    -39.79020765	     -3.54578685	      1.98422077	     42.91512405	     -6.30210267	     22.69691445	     65.23422674	     85.26856344	     42.22450245	     -9.57412678	     -0.90026954	    102.53803629	     51.98162590
      2.99166670	    -11.29500604	     -0.71761692	      7.08179678	      0.51823483	      0.70591488	     -0.19260840	     62.51759248	     -7.37757347	      4.18704946	     86.59831642	      1.51142575	     35.02125085	    -16.19642005	     -7.49999987	     62.81920430	     -5.12072165	      1.65565497	     87.52851292	      1.52766074	     35.19254587	     -3.15964635	     -7.49999987	    -39.78735622	     -3.55029780	      2.00171736	     42.91583316	     -6.28839338	     22.70545995	     65.23947629	     85.27109609	     42.22581440	     -9.58545332	     -0.90477761	    102.53685012	     51.98064853
      2.99583330	    -11.79368815	     -0.88320371	      7.13865473	      0.52139795	      0.70492397	     -0.18914744	     63.10110357	     -7.27985416	      3.92471323	     86.81310578	      1.51517453	     34.98488628	    -16.09839810	     -7.49999987	     63.28756877	     -5.39872028	      1.81567140	     87.60283056	      1.52895783	     35.63919032	     -2.58957282	     -7.49999987	    -39.05148740	     -3.40142155	      2.16086860	     42.55477461	     -6.64310262	     23.78382544	     65.94802019	     84.26914926	     41.84476519	     -9.91507976	     -0.42628810	    102.45557019	     52.42061903
      3.00000000	    -12.02199011	     -0.98860576	      7.14385064	      0.52198104	      0.70531734	     -0.18878316	     63.13792894	     -7.13282113	      3.77694091	     86.70009275	      1.51320208	     34.91496704	    -16.65757413	     -7.49999987	     63.39563670	     -5.55959863	      1.94602368	     87.59107348	      1.52875263	     35.55897729	     -2.83716112	     -7.49999987	    -38.67179324	     -3.36666635	      2.07266129	     42.27879961	     -6.84417193	     24.55411733	     66.22736451	     83.95187063	     41.56716050	    -10.19918736	     -0.51456658	    102.57098180	     52.57435593
      3.00416670	    -12.08133579	     -1.04302821	      7.13402027	      0.52146116	      0.70495338	     -0.18942636	     63.07577408	     -7.05033473	      3.72756269	     86.59911279	      1.51143965	     34.80044482	    -16.59529484	     -7.49999987	     63.39874093	     -5.58222560	      1.94177778	     87.53612271	      1.52779356	     35.69167204	     -2.53719496	     -7.49999987	    -38.43356842	     -3.33577253	      1.66204854	     42.29611335	     -6.67441051	     24.79569597	     65.92630316	     90.25478791	     41.12675309	    -10.59985659	     -0.72575959	    102.96407134	     50.03171136
      3.00833330	    -12.17738676	     -1.07084995	      7.06785114	      0.51847881	      0.70546432	     -0.19336128	     63.17837438	     -7.15080879	      3.76984621	     86.41840552	      1.50828571	     34.58357633	    -16.37340651	     -7.49999987	     63.57760192	     -5.47114389	      1.79486113	     87.46486844	      1.52654993	     35.77631738	     -2.49219016	     -7.49999987	    -38.19006898	     -3.26809992	      1.56475711	     42.25637635	     -6.80109845	     24.92888204	     65.96331336	     90.27535941	     40.95654942	    -10.64541268	     -0.51001132	    102.95279283	     50.04657072
      3.01250000	    -12.26124227	     -1.15467181	      7.22885772	      0.52194012	      0.70541017	     -0.18962168	     63.16517609	     -7.19606530	      3.74454022	     86.36766008	      1.50740004	     34.78788014	    -16.43944186	     -7.49999987	     63.64168509	     -5.47041838	      1.81441228	     87.31160324	      1.52387495	     35.75810698	     -2.35675503	     -7.49999987	    -37.85259290	     -3.18064028	      1.40678991	     41.86673547	     -6.98545680	     25.11074458	     65.96271056	     90.30216235	     40.82579659	    -10.92039350	     -0.27963667	    102.85686245	     50.06105818
      3.01666670	    -12.80799982	     -1.22134341	      7.21162021	      0.52262272	      0.70520767	     -0.18935428	     63.73848409	     -7.10654535	      3.76895112	     86.28880440	      1.50602374	     34.73737651	    -16.30579050	     -7.49999987	     64.19324057	     -5.55256511	      1.74246327	     87.23811489	      1.52259234	     35.84566756	     -2.03769921	     -7.49999987	    -36.85864979	     -3.20533691	      1.57274041	     41.35616681	     -7.41959037	     25.61452059	     66.25086522	     88.76552079	     40.69863039	    -11.42100924	      0.95438851	    102.04425520	     50.81473754
      3.02083330	    -12.91461291	     -1.25853053	      7.27338498	      0.52245327	      0.70787831	     -0.19051564	     63.68607067	     -6.91431700	      3.88355800	     86.08112827	      1.50239911	     34.52959110	    -16.28997176	     -7.49999987	     64.10498674	     -5.59336080	      1.76542677	     86.96891815	      1.51789397	     35.50286371	     -2.43431409	     -7.49999987	    -36.44984541	     -3.19137961	      1.63390416	     40.83686480	     -7.76911580	     25.76243019	     66.51447274	     86.90595537	     40.72255471	    -11.50806338	      1.57849838	    101.14647325	     51.68236243
      3.02500000	    -12.88586574	     -1.26308372	      7.11073475	      0.51927688	      0.70823131	     -0.19418599	     63.71583187	     -6.93157359	      3.72721889	     85.93143973	      1.49978655	     34.40953127	    -16.26813768	     -7.49999987	     64.07946261	     -5.64287434	      1.68169440	     86.85522309	      1.51590962	     35.44506112	     -2.53847155	     -7.49999987	    -36.32510966	     -3.12546523	      1.40394780	     40.70498063	     -7.97885539	     25.76006339	     66.51303684	     86.94116602	     40.69416639	    -11.62280459	      1.57444623	    101.10576159	     51.67591991
